<svg xmlns="http://www.w3.org/2000/svg" width="1631.109" height="94.994" viewBox="0 0 1631.109 94.994">
  <g id="Group_10780" data-name="Group 10780" opacity="0.1" style="mix-blend-mode: difference;isolation: isolate">
    <path id="Path_45" data-name="Path 45" d="M880.012-61.446l.508-13.63a46.544,46.544,0,0,0,7.9,5.733q9.677,5.608,18.213,5.608A17.823,17.823,0,0,0,918.1-67.5a12.418,12.418,0,0,0,4.712-10.256q0-6.875-12.1-14.266l-8.789-5.349q-12.232-7.386-16.944-13.5a21.974,21.974,0,0,1-4.584-13.5,22.424,22.424,0,0,1,7.388-17.515q7.517-6.943,21.4-8.217a74.245,74.245,0,0,1,17.577,1.017c.769.175,2,.427,3.7.768l3.057.509,1.146.255.763.127,1.658.254h1.907l1.531,13.5-1.656-1.147-1.783-1.145q-10.959-7.134-20.514-7.134a15.858,15.858,0,0,0-10.059,3.182,11.149,11.149,0,0,0-4.588,9.428,12.015,12.015,0,0,0,1.913,6.5q2.67,4.586,14.266,11.209c.849.427,2.119,1.106,3.821,2.04s3.1,1.742,4.205,2.419a67.626,67.626,0,0,1,11.08,7.646,21.345,21.345,0,0,1,7.26,16.431,24.8,24.8,0,0,1-4.138,13.5,30.5,30.5,0,0,1-11.912,10.573q-10.316,5.349-24.457,4.84-5.859-.256-15.668-3.182c-1.612-.513-2.927-.936-3.946-1.277l-2.168-.763Z" transform="translate(-880.012 150.281)" fill="#fff"/>
    <path id="Path_46" data-name="Path 46" d="M907.031-149.677h28.151l21.652,41.145,12.613-28.787a23.085,23.085,0,0,0,1.911-9.428v-2.93h19.108a62.9,62.9,0,0,0-7.516,10.828q-.254.385-1.656,3.184l-16.687,32.357q-2.041,3.7-2.295,10.192v20q0,.893.255,4.588a49.379,49.379,0,0,0,2.04,10.571H938.239a30.473,30.473,0,0,0,2.165-8.533,45.286,45.286,0,0,0,.381-5.222v-22.8l-23.82-40.634q-.763-1.274-4.459-7.007L912-142.8Z" transform="translate(-842.194 151.127)" fill="#fff"/>
    <path id="Path_47" data-name="Path 47" d="M942.49-149.677h23.566l46.37,63.439v-51.08a49.175,49.175,0,0,0-1.657-12.358h14.267q-.126.511-.319,1.531c-.127.677-.235,1.188-.317,1.526a77.9,77.9,0,0,0-1.02,9.3V-57.96h-17.323L956.12-126.109l.125,56.177a42.66,42.66,0,0,0,1.913,11.972H943.764A48.686,48.686,0,0,0,945.547-67v-1.4a12.931,12.931,0,0,0,.124-1.526l.13-7.77v-53.249a62.381,62.381,0,0,0-.511-9.424Q944.146-147.64,942.49-149.677Z" transform="translate(-792.561 151.127)" fill="#fff"/>
    <path id="Path_48" data-name="Path 48" d="M1052.114-147.681l1.019,14.142q-11.082-8.279-23.184-8.279a21.514,21.514,0,0,0-17.006,7.513q-6.558,7.516-8.214,22.039a63.986,63.986,0,0,0-.13,14.521q1.657,14.9,8.98,22.864a24.247,24.247,0,0,0,18.662,7.962q11.467.129,21.786-10.189a23.536,23.536,0,0,0,2.29-2.551L1051.6-65.006a45.593,45.593,0,0,1-14.008,7.134,44.858,44.858,0,0,1-13.5,2.165q-19.749,0-31.978-14.523Q980.4-84.114,981.161-104.244q.768-19.488,13.693-32.672T1027.02-150.1a82,82,0,0,1,10.7.893c1.1.17,2.166.341,3.184.509l2.932.511,1.27.257,2.932.382,1.783.125h.511A5.575,5.575,0,0,0,1052.114-147.681Z" transform="translate(-738.498 150.532)" fill="#fff"/>
    <path id="Path_49" data-name="Path 49" d="M1015.9-57.96a48.224,48.224,0,0,0,1.784-11.972l.124-3.568.13-2.421-.13-61.526a45.541,45.541,0,0,0-1.783-12.229h24.715a60.437,60.437,0,0,0-1.4,12.229v1.913l-.13,3.945v21.4H1073.6l-.125-27.261a50.318,50.318,0,0,0-1.527-12.229h24.839a45.6,45.6,0,0,0-1.786,12.229l-.126,3.568.257,63.947a47.984,47.984,0,0,0,1.78,11.972h-25.6a40.662,40.662,0,0,0,2.165-11.972l.125-7.77v-23.822h-34.393l.13,31.592a39.246,39.246,0,0,0,.574,5.793,28.783,28.783,0,0,0,1.59,6.179Z" transform="translate(-689.805 151.127)" fill="#fff"/>
    <path id="Path_50" data-name="Path 50" d="M1053.964-148.86h17.575q.262,0,12.1-.763l7.9-.511c1.7-.082,2.931-.127,3.7-.127q9.676.255,15.923,3.568,10.571,5.475,10.572,17.326A21.4,21.4,0,0,1,1116-114.849a33.971,33.971,0,0,1-12.991,9.047,30.3,30.3,0,0,1-4.078,1.274l21.02,28.405q9.294,12.613,20.508,18.979h-12.1q-11.342,0-16.24-2.294t-11.277-10.571l-14.008-18.214-2.928-4.334a28.084,28.084,0,0,0-2.293-3.057h-.129l-2.676-2.548-1.274-1.272V-68.99a45.417,45.417,0,0,0,.509,5.86,39.488,39.488,0,0,0,1.4,5.987H1054.09a51.632,51.632,0,0,0,2.163-15.159q0-3.693.131-2.673l-.131-1.91-.125-59.616A35.849,35.849,0,0,0,1053.964-148.86Zm23.565,41.656,1.146.125h1.02a12.486,12.486,0,0,0,2.929-.125q8.658-.889,13.63-6.878a20.155,20.155,0,0,0,4.582-13.378q0-14.647-17.448-14.648a32.677,32.677,0,0,0-4.077.254q-.256,0-.83.065a4.558,4.558,0,0,0-.954.192Z" transform="translate(-636.531 150.309)" fill="#fff"/>
    <path id="Path_51" data-name="Path 51" d="M1088.527-101.655q-.384-18.7,10.255-31.674t28.724-15.9a67.038,67.038,0,0,1,9.936-.763q20.38,0,33.439,12.723t13.058,32.691a59.182,59.182,0,0,1-.639,8.651,45.549,45.549,0,0,1-12.609,25.7,46.412,46.412,0,0,1-25.351,13.357,56.415,56.415,0,0,1-10.573,1.02q-13.371,0-23.308-6.234Q1089.034-75.957,1088.527-101.655Zm23.312-1.337q.249,19.11,7.641,29.684,6.626,9.55,16.944,9.553,10.829,0,17.2-9.81,6.877-10.7,6.37-30.572-.38-14.391-5.223-24.714-6.495-13.757-19.11-13.755T1116.8-130q-3.7,7.516-4.711,20.637Q1111.836-105.539,1111.84-102.992Z" transform="translate(-588.17 150.682)" fill="#fff"/>
    <path id="Path_52" data-name="Path 52" d="M1131.942-149.677h23.565l46.368,63.439v-51.08a49.331,49.331,0,0,0-1.654-12.358h14.265q-.126.511-.318,1.531c-.128.677-.237,1.188-.319,1.526a77.329,77.329,0,0,0-1.018,9.3V-57.96h-17.326l-49.935-68.149.126,56.177a42.665,42.665,0,0,0,1.913,11.972h-14.394A48.626,48.626,0,0,0,1135-67v-1.4a13.57,13.57,0,0,0,.124-1.526l.13-7.77v-53.249a62.882,62.882,0,0,0-.51-9.424Q1133.6-147.64,1131.942-149.677Z" transform="translate(-527.385 151.127)" fill="#fff"/>
    <path id="Path_53" data-name="Path 53" d="M1294.629-61.446l.508-13.63a46.622,46.622,0,0,0,7.9,5.733q9.679,5.608,18.215,5.608a17.813,17.813,0,0,0,11.465-3.76,12.414,12.414,0,0,0,4.713-10.256q0-6.875-12.1-14.266l-8.791-5.349q-12.226-7.386-16.943-13.5a21.969,21.969,0,0,1-4.585-13.5,22.424,22.424,0,0,1,7.391-17.515q7.512-6.943,21.4-8.217a74.245,74.245,0,0,1,17.576,1.017c.766.175,2,.427,3.694.768l3.058.509,1.147.255.765.127,1.656.254h1.907l1.53,13.5-1.654-1.147-1.784-1.145q-10.959-7.134-20.512-7.134a15.865,15.865,0,0,0-10.062,3.182,11.151,11.151,0,0,0-4.587,9.428,12.045,12.045,0,0,0,1.913,6.5q2.674,4.586,14.265,11.209,1.275.641,3.821,2.04t4.207,2.419a67.581,67.581,0,0,1,11.079,7.646,21.353,21.353,0,0,1,7.262,16.431,24.792,24.792,0,0,1-4.139,13.5,30.517,30.517,0,0,1-11.912,10.573q-10.317,5.349-24.458,4.84-5.856-.256-15.667-3.182c-1.613-.513-2.928-.936-3.948-1.277l-2.166-.763Z" transform="translate(-299.672 150.281)" fill="#fff"/>
    <path id="Path_54" data-name="Path 54" d="M1250.766-61.446l.509-13.63a46.57,46.57,0,0,0,7.9,5.733q9.682,5.608,18.216,5.608a17.809,17.809,0,0,0,11.466-3.76,12.419,12.419,0,0,0,4.716-10.256q0-6.875-12.1-14.266l-8.79-5.349q-12.229-7.386-16.943-13.5a21.964,21.964,0,0,1-4.586-13.5,22.424,22.424,0,0,1,7.391-17.515q7.517-6.943,21.4-8.217a74.227,74.227,0,0,1,17.575,1.017c.769.175,2,.427,3.7.768l3.056.509,1.149.255.763.127,1.654.254h1.908l1.532,13.5-1.656-1.147-1.785-1.145q-10.956-7.134-20.509-7.134a15.859,15.859,0,0,0-10.062,3.182,11.147,11.147,0,0,0-4.587,9.428,12.038,12.038,0,0,0,1.912,6.5q2.672,4.586,14.265,11.209,1.275.641,3.823,2.04t4.2,2.419a67.608,67.608,0,0,1,11.082,7.646,21.356,21.356,0,0,1,7.259,16.431,24.8,24.8,0,0,1-4.137,13.5,30.547,30.547,0,0,1-11.912,10.573q-10.319,5.349-24.461,4.84-5.857-.256-15.667-3.182c-1.61-.513-2.928-.936-3.945-1.277l-2.169-.763Z" transform="translate(-361.067 150.281)" fill="#fff"/>
    <path id="Path_55" data-name="Path 55" d="M1325.105-101.655q-.383-18.7,10.255-31.674t28.727-15.9a67.013,67.013,0,0,1,9.935-.763q20.376,0,33.439,12.723t13.057,32.691a59.555,59.555,0,0,1-.638,8.651,45.569,45.569,0,0,1-12.61,25.7,46.413,46.413,0,0,1-25.35,13.357,56.412,56.412,0,0,1-10.574,1.02q-13.375,0-23.31-6.234Q1325.613-75.957,1325.105-101.655Zm23.313-1.337q.248,19.11,7.641,29.684,6.627,9.55,16.943,9.553,10.827,0,17.2-9.81,6.876-10.7,6.367-30.572-.379-14.391-5.221-24.714-6.5-13.757-19.107-13.755T1353.385-130q-3.7,7.516-4.71,20.637Q1348.415-105.539,1348.418-102.992Z" transform="translate(-257.032 150.682)" fill="#fff"/>
    <path id="Path_56" data-name="Path 56" d="M1169.055-101.655q-.382-18.7,10.257-31.674t28.725-15.9a66.984,66.984,0,0,1,9.934-.763q20.382,0,33.441,12.723t13.056,32.691a59.553,59.553,0,0,1-.636,8.651,45.559,45.559,0,0,1-12.612,25.7,46.4,46.4,0,0,1-25.35,13.357,56.4,56.4,0,0,1-10.573,1.02q-13.374,0-23.308-6.234Q1169.566-75.957,1169.055-101.655Zm23.314-1.337q.252,19.11,7.639,29.684,6.627,9.55,16.946,9.553,10.827,0,17.2-9.81,6.876-10.7,6.367-30.572-.379-14.391-5.221-24.714-6.5-13.757-19.107-13.755T1197.333-130q-3.694,7.516-4.708,20.637C1192.449-106.812,1192.369-104.688,1192.369-102.992Z" transform="translate(-475.457 150.682)" fill="#fff"/>
    <path id="Path_57" data-name="Path 57" d="M1369-57.96a49.154,49.154,0,0,0,2.038-15.159v-61.528a24.251,24.251,0,0,0-.125-2.8q-.385-8.79-1.531-12.229h24.458l-.382,1.783-.252,1.529-.13,1.529-.257,2.676c-.251,2.719-.382,4.631-.382,5.733V-66.75h11.593a66.707,66.707,0,0,0,23.057-3.82l-3.7,12.61Z" transform="translate(-195.578 151.127)" fill="#fff"/>
    <path id="Path_58" data-name="Path 58" d="M1395.326-149.677h24.2a67.615,67.615,0,0,0-1.274,12.483v5.99l-.126,1.908v43.7q0,7.9,2.673,11.847,3.055,4.712,10.576,5.858a23.843,23.843,0,0,0,7.387-.13q7.768-1.4,11.273-6.3t3.5-14.2v-48.534q0-2.289-.381-6.049a55.681,55.681,0,0,0-1.019-6.561h24.328a51.263,51.263,0,0,0-1.528,12.483v67.261a37.7,37.7,0,0,0,1.783,11.972h-23.313V-67q-9.547,9.553-25.857,10.7-2.547.123-5.605,0-13.882-.767-19.425-7.009t-5.545-20.633l-.125-53.249A59.248,59.248,0,0,0,1395.326-149.677Z" transform="translate(-158.726 151.127)" fill="#fff"/>
    <path id="Path_59" data-name="Path 59" d="M1212.283-149.677h24.207a67.389,67.389,0,0,0-1.274,12.483v5.99l-.128,1.908v43.7q0,7.9,2.674,11.847,3.056,4.712,10.574,5.858a23.843,23.843,0,0,0,7.387-.13q7.771-1.4,11.274-6.3t3.5-14.2v-48.534q0-2.289-.382-6.049a55.142,55.142,0,0,0-1.018-6.561h24.328a51.275,51.275,0,0,0-1.529,12.483v67.261a37.8,37.8,0,0,0,1.783,11.972H1270.37V-67q-9.55,9.553-25.86,10.7-2.544.123-5.6,0-13.883-.767-19.426-7.009t-5.542-20.633l-.125-53.249A59.212,59.212,0,0,0,1212.283-149.677Z" transform="translate(-414.93 151.127)" fill="#fff"/>
    <path id="Path_60" data-name="Path 60" d="M1431.264-139.231l1.654-10.446h78.214l1.656,10.446-2.547-.636-2.291-.509c-.849-.086-2.041-.257-3.566-.511a127.139,127.139,0,0,0-14.142-1.4H1482.6v67.129c0,.684.046,1.742.129,3.187a74.4,74.4,0,0,0,2.041,14.012h-25.478a64.924,64.924,0,0,0,2.166-17.2v-67.129h-7.643a127,127,0,0,0-14.141,1.4q-1.147.126-3.564.511l-2.295.509Z" transform="translate(-108.423 151.127)" fill="#fff"/>
    <path id="Path_61" data-name="Path 61" d="M1467.1-57.96a47.752,47.752,0,0,0,2.037-11.972l.125-.638.125-6.75-.125-60a39.467,39.467,0,0,0-2.162-12.358h25.6a40.464,40.464,0,0,0-2.039,12.358v5.985l-.125,1.783.252,59.489a49.419,49.419,0,0,0,1.912,12.1Z" transform="translate(-58.269 151.127)" fill="#fff"/>
    <path id="Path_62" data-name="Path 62" d="M1481.912-101.655q-.381-18.7,10.256-31.674t28.726-15.9a67.034,67.034,0,0,1,9.934-.763q20.382,0,33.439,12.723t13.057,32.691a59.213,59.213,0,0,1-.637,8.651,45.552,45.552,0,0,1-12.61,25.7,46.4,46.4,0,0,1-25.351,13.357,56.389,56.389,0,0,1-10.573,1.02q-13.371,0-23.307-6.234Q1482.419-75.957,1481.912-101.655Zm23.313-1.337q.254,19.11,7.643,29.684,6.627,9.55,16.944,9.553,10.827,0,17.2-9.81,6.876-10.7,6.367-30.572-.384-14.391-5.221-24.714-6.5-13.757-19.11-13.755T1510.192-130q-3.693,7.516-4.708,20.637Q1505.219-105.539,1505.224-102.992Z" transform="translate(-37.548 150.682)" fill="#fff"/>
    <path id="Path_63" data-name="Path 63" d="M1525.327-149.677h23.565l46.371,63.439v-51.08a49.336,49.336,0,0,0-1.656-12.358h14.266c-.086.341-.19.852-.319,1.531s-.237,1.188-.318,1.526a77.382,77.382,0,0,0-1.018,9.3V-57.96h-17.325l-49.936-68.149.127,56.177A42.668,42.668,0,0,0,1541-57.96h-14.4A48.626,48.626,0,0,0,1528.384-67v-1.4a13.805,13.805,0,0,0,.125-1.526l.129-7.77v-53.249a62.982,62.982,0,0,0-.51-9.424Q1526.985-147.64,1525.327-149.677Z" transform="translate(23.237 151.127)" fill="#fff"/>
  </g>
</svg>
